<?xml version="1.0" standalone="no"?>
<!DOCTYPE svg PUBLIC "-//W3C//DTD SVG 1.1//EN" "http://www.w3.org/Graphics/SVG/1.1/DTD/svg11.dtd" >
<!--
2013-9-30: Created.
-->
<svg>
<metadata>
Created by iconfont
</metadata>
<defs>

<font id="exe" horiz-adv-x="1024" >
  <font-face
    font-family="exe"
    font-weight="500"
    font-stretch="normal"
    units-per-em="1024"
    ascent="896"
    descent="-128"
  />
    <missing-glyph />
    
    <glyph glyph-name="enter" unicode="&#58880;" d="M693.792 397.76l-320 297.664a32 32 0 0 1-43.584-46.848l295.36-274.752-295.84-286.848a31.968 31.968 0 1 1 44.544-45.92l320 310.272a31.968 31.968 0 0 1-0.48 46.4"  horiz-adv-x="1024" />

    
    <glyph glyph-name="return" unicode="&#58881;" d="M694.272 86.976L398.464 373.82399999999996l295.36 274.752a32 32 0 0 1-43.616 46.848l-320-297.696a32 32 0 0 1-0.512-46.4l320-310.304a32.032 32.032 0 0 1 44.576 45.952"  horiz-adv-x="1024" />

    
    <glyph glyph-name="packup" unicode="&#58882;" d="M793.024 185.72799999999995a32 32 0 1 1 45.952 44.544l-310.304 320a32 32 0 0 1-46.4-0.48l-297.696-320a32 32 0 0 1 46.848-43.584l274.752 295.328 286.848-295.808z"  horiz-adv-x="1024" />

    
    <glyph glyph-name="unfold" unicode="&#58883;" d="M231.424 549.7919999999999a32 32 0 0 1-46.848-43.584l297.696-320a32 32 0 0 1 46.4-0.48l310.304 320a32 32 0 1 1-45.952 44.544L506.176 254.46400000000006l-274.752 295.36z"  horiz-adv-x="1024" />

    
    <glyph glyph-name="lock-o" unicode="&#58886;" d="M742.71314812-11.5078125H281.28685188c-56.03001594 0-98.87695313 42.84693718-98.87695312 98.87695313V384c0 56.03001594 42.84693718 98.87695313 98.87695312 98.87695313h461.42629624c56.03001594 0 98.87695313-42.84693718 98.87695312-98.87695313v-296.63085938c0-56.03001594-42.84693718-98.87695313-98.87695312-98.87695312zM281.28685188 416.95924187c-19.77539063 0-32.95846939-13.18385124-32.95846939-32.95924187v-296.63085938c0-19.77539063 13.18307876-32.95924187 32.95846939-32.95924186h461.42629624c19.77539063 0 32.95846939 13.18385124 32.95846939 32.95924187V384c0 19.77539063-13.18307876 32.95924187-32.95846939 32.95924187H281.28685188zM742.71314812 416.95924187H281.28685188V548.79466438C281.28685188 677.33470344 383.45996094 779.5078125 512 779.5078125s230.71314812-102.17310906 230.71314812-230.71314812v-131.83542251z m-395.5078125 65.91771126h329.58932876v65.91771125C676.79466438 641.08007813 604.28541374 713.59010124 512 713.59010124S347.20533562 641.08007813 347.20533562 548.79466438V482.87695313z m98.87695312-197.75390626a65.91771126 65.91771126 0 1 1 131.83542252 1e-8 65.91771126 65.91771126 0 1 1-131.83542252 0zM479.04075813 252.16380501000003h65.91848374v-98.87695313c0-19.77539063-13.18385124-32.95846939-32.95924187-32.95846939s-32.95924187 13.18307876-32.95924187 32.95846939v98.87695313z"  horiz-adv-x="1024" />

    
    <glyph glyph-name="lock" unicode="&#58887;" d="M742.58105469 482.87695313v66.04980468C742.58105469 677.46679688 640.54003906 779.5078125 512 779.5078125S281.41894531 677.46679688 281.41894531 548.92675781V482.87695313c-56.16210938 0-98.87695313-42.71484375-98.87695312-98.87695313v-296.63085938c0-27.29003906 9.88769531-51.02050781 26.89453125-68.81835937v-2.37304688h2.37304687c17.79785156-17.40234375 41.92382813-27.68554688 69.609375-27.68554687h461.55761719c27.68554688 0 51.81152344 10.28320313 69.609375 27.68554688 18.19335938 17.79785156 29.26757813 42.71484375 29.26757813 71.19140624V384c-0.39550781 56.16210938-43.11035156 98.87695313-99.27246094 98.87695313z m-197.75390625-254.70703126v-74.75097656c0-19.77539063-13.05175781-32.82714844-32.82714844-32.82714843s-32.82714844 13.05175781-32.82714844 32.82714843v74.75097657c-19.77539063 11.46972656-32.82714844 32.82714844-32.82714843 56.95312499 0 36.38671875 29.66308594 66.04980469 66.04980468 66.04980469s66.04980469-29.66308594 66.04980469-66.04980468c-0.39550781-24.52148438-13.84277344-45.48339844-33.61816406-56.95312501zM676.92675781 482.87695313H347.07324219v66.04980468C347.07324219 641.08007813 419.45117187 713.85351563 512 713.85351563s164.92675781-72.37792969 164.92675781-164.92675782V482.87695313z"  horiz-adv-x="1024" />

    
    <glyph glyph-name="success-o" unicode="&#58888;" d="M512 820.907C270.61 820.907 75.093 625.39 75.093 384S270.61-52.90700000000004 512-52.90700000000004 948.907 142.61 948.907 384 753.39 820.907 512 820.907z m0-819.2c-210.807 0-382.293 171.486-382.293 382.293S301.193 766.293 512 766.293 894.293 594.807 894.293 384 722.807 1.7069999999999936 512 1.7069999999999936zM683.486 554.394l-225.553-269.79000001-129.434 111.41000001c-11.469 9.831-28.399 8.74000001-38.77500001-2.73000001-9.83-11.469-8.738-28.399 2.73000001-38.77499999l150.187-129.98c4.915-4.369 11.469-6.554 18.022-6.554h2.185c7.10000001 0.547 14.2 4.37 18.569 9.83l243.575 291.636c9.83 11.469 8.192 28.945-3.277 38.23s-28.945 8.191-38.23-3.277z"  horiz-adv-x="1024" />

    
    <glyph glyph-name="success" unicode="&#58889;" d="M512 820.907C270.61 820.907 75.093 625.39 75.093 384S270.61-52.90700000000004 512-52.90700000000004 948.907 142.61 948.907 384 753.39 820.907 512 820.907zM724.992 519.44l-243.03-291.089c-4.915-5.461-11.468-9.284-18.568-9.83h-2.184c-6.554 0-13.108 2.184-18.023 6.553l-150.186 129.98c-11.47 9.83-12.562 27.307-2.731 38.775 9.83 11.47 27.307 12.561 38.775 2.731L458.48 285.15l225.553 269.79c9.83 11.469 26.76 13.107 38.23 3.277s12.56-27.307 2.73-38.776z"  horiz-adv-x="1024" />

    
    <glyph glyph-name="fail-o" unicode="&#58890;" d="M512 820.907C270.61 820.907 75.093 625.39 75.093 384S270.61-52.90700000000004 512-52.90700000000004 948.907 142.61 948.907 384 753.39 820.907 512 820.907z m0-819.2c-210.807 0-382.293 171.486-382.293 382.293S301.193 766.293 512 766.293 894.293 594.807 894.293 384 722.807 1.7069999999999936 512 1.7069999999999936zM692.77 572.4159999999999c-10.923 10.923-27.853 10.923-38.775 0L504.9 423.322 357.444 570.778c-10.922 10.922-27.853 10.922-38.775 0s-10.923-27.853 0-38.776l147.456-147.456L320.307 238.73000000000002c-10.922-10.923-10.922-27.853 0-38.776 5.462-5.461 12.561-8.192 19.115-8.192 7.1 0 14.2 2.73 19.115 8.192l145.817 145.818L651.81 198.31500000000005c5.461-5.462 12.561-8.192 19.115-8.192s14.2 2.73 19.114 8.192c10.923 10.922 10.923 27.852 0 38.775L542.583 384.546l149.095 149.095c11.469 10.922 11.469 28.398 1.092 38.775z"  horiz-adv-x="1024" />

    
    <glyph glyph-name="fail" unicode="&#58891;" d="M512 820.907C270.61 820.907 75.093 625.39 75.093 384S270.61-52.90700000000004 512-52.90700000000004 948.907 142.61 948.907 384 753.39 820.907 512 820.907zM691.132 237.09000000000003c10.922-10.923 10.922-27.853 0-38.775-5.462-5.462-12.561-8.192-19.115-8.192s-14.2 2.73-19.115 8.192L505.446 345.77 359.083 200.49900000000002c-5.462-5.461-12.561-8.192-19.115-8.192-7.1 0-14.2 2.73-19.115 8.192-10.922 10.923-10.922 27.853 0 38.776l145.818 145.817-147.456 147.456c-10.923 10.923-10.923 27.853 0 38.776s27.853 10.922 38.775 0l147.456-147.456 148.549 148.548c10.922 10.923 27.852 10.923 38.775 0s10.923-27.853 0-38.775L543.676 384.546 691.132 237.09000000000003z"  horiz-adv-x="1024" />

    
    <glyph glyph-name="radio-o" unicode="&#58892;" d="M500.224 742.4c197.632 0 358.4-160.768 358.4-358.4s-160.768-358.4-358.4-358.4-358.4 160.768-358.4 358.4 160.768 358.4 358.4 358.4m0 51.2c-226.304 0-409.6-183.296-409.6-409.6s183.296-409.6 409.6-409.6 409.6 183.296 409.6 409.6-183.296 409.6-409.6 409.6z"  horiz-adv-x="1024" />

    
    <glyph glyph-name="radio" unicode="&#58893;" d="M500.224 793.6c-226.304 0-409.6-183.296-409.6-409.6s183.296-409.6 409.6-409.6 409.6 183.296 409.6 409.6-183.296 409.6-409.6 409.6z m0-768c-197.632 0-358.4 160.768-358.4 358.4s160.768 358.4 358.4 358.4 358.4-160.768 358.4-358.4-160.768-358.4-358.4-358.4zM244.224 384a256 256 0 1 1 512 0 256 256 0 1 1-512 0z"  horiz-adv-x="1024" />

    
    <glyph glyph-name="refresh-o" unicode="&#58894;" d="M854 531.15c-25.65 57.6-65.7 108-117 145.8C574.1 797.55 341.9 764.25 219.95 603.15 160.55 525.3 135.8 429 149.75 332.70000000000005 163.7 235.5 215 150 294.2 91.04999999999995c66.15-49.05 144-72.9 220.95-72.9 112.5 0 223.65 50.4 296.1 146.25 31.95 42.3 54 89.55 65.25 140.85 3.15 15.3-6.3 30.15-21.6 33.3-15.3 3.15-30.15-6.3-33.3-21.6-9.45-43.2-27.9-83.25-55.35-119.25-103.5-136.8-300.6-164.7-438.75-62.1-67.05 49.5-110.25 121.95-122.4 203.85-11.25 82.8 9.45 163.8 59.4 229.95 103.5 136.8 300.6 164.7 438.75 62.1 15.75-11.7 43.2-38.7 43.2-38.7S684.35 521.25 678.5 506.85c-5.85-14.4 1.35-30.6 16.2-36.45l142.2-55.35c3.15-1.35 6.75-1.8 10.35-1.8h1.35c0.9 0 2.25-0.45 3.15-0.45 11.7 0 22.5 7.2 26.55 18.9l-8.1 48.6-13.05 44.1-3.15 6.75z"  horiz-adv-x="1024" />

    
    <glyph glyph-name="refresh" unicode="&#58895;" d="M854 531.15c-25.65 57.6-65.7 108-117 145.8C574.1 797.55 341.9 764.25 219.95 603.15 160.55 525.3 135.8 429 149.75 332.70000000000005 163.7 235.5 215 150 294.2 91.04999999999995c66.15-49.05 144-72.9 220.95-72.9 112.5 0 223.65 50.4 296.1 146.25 31.95 42.3 54 89.55 65.25 140.85 3.15 15.3-6.3 30.15-21.6 33.3-15.3 3.15-30.15-6.3-33.3-21.6-9.45-43.2-27.9-83.25-55.35-119.25-103.5-136.8-300.6-164.7-438.75-62.1-67.05 49.5-110.25 121.95-122.4 203.85-11.25 82.8 9.45 163.8 59.4 229.95 103.5 136.8 300.6 164.7 438.75 62.1 15.75-11.7 43.2-38.7 43.2-38.7S684.35 521.25 678.5 506.85c-5.85-14.4 1.35-30.6 16.2-36.45l142.2-55.35c3.15-1.35 6.75-1.8 10.35-1.8h1.35c0.9 0 2.25-0.45 3.15-0.45 11.7 0 22.5 7.2 26.55 18.9l-8.1 48.6-13.05 44.1-3.15 6.75z"  horiz-adv-x="1024" />

    
    <glyph glyph-name="playon-o" unicode="&#58896;" d="M512 64c-176.448 0-320 143.552-320 320s143.552 320 320 320 320-143.552 320-320-143.552-320-320-320m0 704c-211.744 0-384-172.256-384-384s172.256-384 384-384 384 172.256 384 384-172.256 384-384 384M480 313.91999999999996V418.656l73.056-50.976L480 313.91999999999996z m146.304 80.704l-160 111.648a32.032 32.032 0 0 1-44.544-8 31.488 31.488 0 0 1-4.224-26.592c-0.64-2.56-1.536-4.96-1.536-7.68v-192c0-3.968 0.928-7.68 2.272-11.2a31.36 31.36 0 0 1 3.936-29.12 32 32 0 0 1 44.768-6.784l160 117.696a32.032 32.032 0 0 1-0.672 52.032z"  horiz-adv-x="1024" />

    
    <glyph glyph-name="playon" unicode="&#58897;" d="M626.976 342.592l-160-117.76a32 32 0 0 0-44.736 6.784 31.36 31.36 0 0 0-3.968 29.12A32.128 32.128 0 0 0 416 272V464c0 2.688 0.928 5.12 1.568 7.68a31.424 31.424 0 0 0 4.16 26.624 32 32 0 0 0 44.576 7.936l160-111.616a32.096 32.096 0 0 0 0.64-52.032M512 768c-211.712 0-384-172.288-384-383.968 0-211.744 172.288-384 384-384 211.744 0 384 172.224 384 384 0 211.68-172.256 383.936-384 383.936"  horiz-adv-x="1024" />

    
    <glyph glyph-name="right-o" unicode="&#58884;" d="M822.464 630.656a28.256 28.256 0 0 1-43.072-1.312L426.432 211.67999999999995l-181.92 212.992a28.288 28.288 0 0 1-43.104 1.088 37.12 37.12 0 0 1-0.96-48.256L404.544 138.55999999999995c5.76-6.752 13.696-10.56 22.016-10.56h0.096a29.088 29.088 0 0 1 22.048 10.656L823.68 582.4c11.52 13.728 11.008 35.328-1.216 48.256"  horiz-adv-x="1024" />

    
    <glyph glyph-name="right" unicode="&#58885;" d="M822.464 630.656a28.256 28.256 0 0 1-43.072-1.312L426.432 211.67999999999995l-181.92 212.992a28.288 28.288 0 0 1-43.104 1.088 37.12 37.12 0 0 1-0.96-48.256L404.544 138.55999999999995c5.76-6.752 13.696-10.56 22.016-10.56h0.096a29.088 29.088 0 0 1 22.048 10.656L823.68 582.4c11.52 13.728 11.008 35.328-1.216 48.256"  horiz-adv-x="1024" />

    
    <glyph glyph-name="search-o" unicode="&#58898;" d="M875.836 52.60799999999995L711.3 217.14499999999998c48.666 57.936 78.792 132.094 78.792 213.204 0 178.442-145.998 324.44-324.44 324.44s-324.44-145.998-324.44-324.44 145.998-324.44 324.44-324.44c81.11 0 155.268 30.126 213.204 78.792l164.537-164.537c4.635-4.635 11.587-6.953 16.222-6.953s11.587 2.318 16.222 6.953c9.27 9.27 9.27 23.174 0 32.444z m-410.185 99.65c-152.95 0-278.091 125.14-278.091 278.09S312.701 708.44 465.651 708.44s278.092-125.141 278.092-278.091S618.602 152.25699999999995 465.65 152.25699999999995z"  horiz-adv-x="1024" />

    
    <glyph glyph-name="search" unicode="&#58899;" d="M875.836 52.60799999999995L711.3 217.14499999999998c48.666 57.936 78.792 132.094 78.792 213.204 0 178.442-145.998 324.44-324.44 324.44s-324.44-145.998-324.44-324.44 145.998-324.44 324.44-324.44c81.11 0 155.268 30.126 213.204 78.792l164.537-164.537c4.635-4.635 11.587-6.953 16.222-6.953s11.587 2.318 16.222 6.953c9.27 9.27 9.27 23.174 0 32.444z m-410.185 99.65c-152.95 0-278.091 125.14-278.091 278.09S312.701 708.44 465.651 708.44s278.092-125.141 278.092-278.091S618.602 152.25699999999995 465.65 152.25699999999995z"  horiz-adv-x="1024" />

    
    <glyph glyph-name="share-o" unicode="&#58900;" d="M736 96c-35.296 0-64 28.704-64 64s28.704 64 64 64 64-28.704 64-64-28.704-64-64-64M288 320c-35.296 0-64 28.704-64 64s28.704 64 64 64 64-28.704 64-64-28.704-64-64-64m448 352c35.296 0 64-28.704 64-64s-28.704-64-64-64-64 28.704-64 64 28.704 64 64 64m0-384a127.776 127.776 0 0 1-115.232-73.28L415.872 331.77599999999995a30.848 30.848 0 0 1-9.696 3.2A127.68 127.68 0 0 1 416 384c0 6.656-0.992 13.088-1.984 19.456 0.608 0.32 1.28 0.416 1.856 0.768l219.616 125.472A127.328 127.328 0 0 1 736 480c70.592 0 128 57.408 128 128s-57.408 128-128 128-128-57.408-128-128c0-6.72 0.992-13.152 1.984-19.616-0.608-0.288-1.28-0.256-1.856-0.608L388.512 462.304A127.328 127.328 0 0 1 288 512c-70.592 0-128-57.408-128-128s57.408-128 128-128a126.912 126.912 0 0 1 84.544 32.64 31.232 31.232 0 0 1 11.584-12.416l224-128c0.352-0.224 0.736-0.256 1.12-0.448C615.488 83.00800000000004 669.6 32 736 32c70.592 0 128 57.408 128 128s-57.408 128-128 128"  horiz-adv-x="1024" />

    
    <glyph glyph-name="share" unicode="&#58901;" d="M736 288a127.776 127.776 0 0 1-115.232-73.28L415.872 331.77599999999995a30.848 30.848 0 0 1-9.696 3.2A127.68 127.68 0 0 1 416 384c0 6.656-0.992 13.088-1.984 19.456 0.608 0.32 1.28 0.416 1.856 0.768l219.616 125.472A127.328 127.328 0 0 1 736 480c70.592 0 128 57.408 128 128s-57.408 128-128 128-128-57.408-128-128c0-6.72 0.992-13.152 1.984-19.616-0.608-0.288-1.28-0.256-1.856-0.608L388.512 462.304A127.328 127.328 0 0 1 288 512c-70.592 0-128-57.408-128-128s57.408-128 128-128a126.912 126.912 0 0 1 84.544 32.64 31.232 31.232 0 0 1 11.584-12.416l224-128c0.352-0.224 0.736-0.256 1.12-0.448C615.488 83.00800000000004 669.6 32 736 32c70.592 0 128 57.408 128 128s-57.408 128-128 128"  horiz-adv-x="1024" />

    
    <glyph glyph-name="browse-o" unicode="&#58902;" d="M812.896 367.10400000000004C812.16 365.05600000000004 730.816 160 504.16 160c-225.44 0-305.248 198.24-309.696 209.376-3.2 6.4-2.944 21.28 1.376 29.92C196.736 401.344 287.776 608 504.16 608c215.296 0 304.384-199.776 309.248-210.752 3.296-6.176 3.552-21.344-0.512-30.144m58.112 57.888C866.72 435.072 762.24 672 504.16 672c-258.08 0-362.816-237.44-366.24-245.568-12.704-24.896-13.056-60.896-1.984-82.752 0.96-2.496 98.048-247.68 368.224-247.68 270.144 0 367.552 245.696 367.552 246.016 11.712 24.832 10.912 61.6-0.704 82.976M568.16 344.03200000000004a64.064 64.064 0 0 0-64-64.032c-35.296 0-64 28.704-64 64.032v71.904c0 35.328 28.704 64.064 64 64.064s64-28.736 64-64.064v-71.904zM504.16 544c-70.592 0-128-57.44-128-128.064v-71.904A128.16 128.16 0 0 1 504.16 216c70.592 0 128 57.44 128 128.032v71.904A128.16 128.16 0 0 1 504.16 544z"  horiz-adv-x="1024" />

    
    <glyph glyph-name="browse" unicode="&#58903;" d="M376.16 344.06399999999996v71.872A128.16 128.16 0 0 0 504.16 544c70.592 0 128-57.44 128-128.064v-71.872A128.16 128.16 0 0 0 504.16 216c-70.592 0-128 57.44-128 128.064m494.88 80.96c-2.048 4.704-26.72 59.936-78.88 116.928C733.696 605.856 640.576 672 504.16 672s-229.6-66.24-288-130.016c-52.096-56.864-76.608-111.68-78.208-115.488-12.736-24.896-13.056-60.896-2.016-82.816 0.48-1.248 24.32-60.96 80.224-121.44C274.144 159.51999999999998 366.624 96 504.16 96c137.504 0 230.08 63.68 288 126.208 55.872 60.32 79.52 119.616 79.552 119.776 11.744 24.896 10.88 61.664-0.672 83.008"  horiz-adv-x="1024" />

    
    <glyph glyph-name="download" unicode="&#58904;" d="M812 144v-60H212v60h-60v-120h720V144z m-8.79 308.79l-42.42 42.42L542 276.41999999999996V744h-60v-467.58L263.21 495.21l-42.42-42.42L512 161.58000000000004z"  horiz-adv-x="1024" />

    
    <glyph glyph-name="upload" unicode="&#58905;" d="M812 744H152v-120h60v60h600v-60h60V744zM220.79 315.21000000000004l42.42-42.42L482 491.58V24h60V491.58l218.79-218.79 42.42 42.42L512 606.4200000000001z"  horiz-adv-x="1024" />

    
    <glyph glyph-name="more" unicode="&#58906;" d="M896 426.667v-128H768v128h128z m-298.667 0v-128h-128v128h128z m-298.666 0v-128h-128v128h128z"  horiz-adv-x="1024" />

    
    <glyph glyph-name="camera-o" unicode="&#58908;" d="M224 116.28800000000001L223.872 556h146.976l45.856 106.048C418.56 666.304 427.2 672 431.84 672h192.288c4.768 0 13.248-5.6 15.136-9.92L685.12 556l146.88-0.32 0.032-439.68L224 116.32000000000005zM832.032 620H727.2l-29.184 67.52c-12 27.584-43.744 48.48-73.888 48.48H431.84c-30.144 0-61.888-20.864-73.856-48.544L328.8 620H223.968A64.224 64.224 0 0 1 160 555.6800000000001v-439.36c0-35.488 28.672-64.32 63.968-64.32h608.064A64.192 64.192 0 0 1 896 116.32000000000005V555.6800000000001c0 35.456-28.704 64.32-63.968 64.32zM528 256c-52.928 0-96 43.072-96 96s43.072 96 96 96 96-43.072 96-96-43.072-96-96-96m0 256c-88.224 0-160-71.776-160-160s71.776-160 160-160 160 71.776 160 160-71.776 160-160 160"  horiz-adv-x="1024" />

    
    <glyph glyph-name="camera" unicode="&#58909;" d="M528 512c88.224 0 160-71.776 160-160s-71.776-160-160-160-160 71.776-160 160 71.776 160 160 160m320 105.728a62.688 62.688 0 0 1-15.968 2.24H727.2L704.704 672l-6.688 15.488c-12 27.648-43.744 48.512-73.888 48.512H431.84c-30.144 0-61.888-20.864-73.856-48.544L351.296 672 328.8 620H223.968c-5.536 0-10.848-0.96-15.968-2.272a64.16 64.16 0 0 1-48-62.08v-439.36c0-29.888 20.448-54.816 48-62.016 5.12-1.312 10.432-2.272 15.968-2.272h608.064c5.536 0 10.848 0.96 15.968 2.24a64.224 64.224 0 0 1 48 62.048v439.36c0 29.92-20.48 54.912-48 62.08"  horiz-adv-x="1024" />

    
    <glyph glyph-name="picture-o" unicode="&#58910;" d="M392.32 95.80799999999999l242.912 242.944L800.224 173.76l0.032-77.76-407.968-0.192zM224 672l576 0.256 0.192-407.968-142.336 142.336a31.968 31.968 0 0 1-45.248 0L301.76 95.77599999999995H224V672z m576.256 64H223.712a63.808 63.808 0 0 1-63.68-63.744v-576.512C160 60.57600000000002 188.544 32 223.68 32h576.544A63.808 63.808 0 0 1 864 95.74400000000003V672.256A63.84 63.84 0 0 1 800.256 736zM416 512a31.68 31.68 0 0 0 32-32 31.68 31.68 0 0 0-32-32 31.68 31.68 0 0 0-32 32c0 17.952 14.048 32 32 32m0-128c52.928 0 96 43.072 96 96s-43.072 96-96 96-96-43.072-96-96 43.072-96 96-96"  horiz-adv-x="1024" />

    
    <glyph glyph-name="picture" unicode="&#58911;" d="M799.936 174.01599999999996V96l-407.648-0.16 0.064 0.032-90.496-0.032 0.96 0.96 332.448 317.952 164.704-150.24v-90.496zM416 576c52.96 0 96-43.072 96-96s-43.04-96-96-96c-52.928 0-96 43.072-96 96s43.072 96 96 96z m384.32 160H223.744A63.776 63.776 0 0 1 160 672.256v-576.512C160 60.60799999999995 188.576 32 223.744 32H800.32A63.84 63.84 0 0 1 864 95.74400000000003V672.256A63.808 63.808 0 0 1 800.32 736z"  horiz-adv-x="1024" />

    
    <glyph glyph-name="material-o" unicode="&#58912;" d="M134.03512192 546.41621018l366.32520676-199.98327256a25.04754067 25.04754067 0 0 1 11.82970047-3.0018425c4.06167983 0 8.12335969 0.97332001 11.65512084 3.0018425l370.30036927 199.98327255a24.60800171 24.60800171 0 0 1 13.06797981 21.89506531 25.35189629 25.35189629 0 0 1-13.42022895 21.89583779L527.20310402 776.85821915a24.87373352 24.87373352 0 0 1-22.33769418 0L134.56504059 590.29749298c-12.18581199-6.35516167-16.95121765-21.36514663-10.68334579-33.55018616a25.4036522 25.4036522 0 0 1 10.15342712-10.33109664zM515.99061203 727.0644035299999l313.35110664-159.45608139-317.14782714-171.28578186-313.17343712 171.02082254L515.99061203 727.0644035299999z m373.47679139-318.55991363l-73.28404427 37.16923713-52.7995205-28.42866897 61.62737847-31.43051147-316.97015762-171.28578187-313.34724427 171.02005005 65.77634812 33.19948196-52.80029297 28.69362832L130.41607094 408.50294495a24.72696304 24.72696304 0 0 1-10.94753266-33.2859993 25.51025391 25.51025391 0 0 1 10.15265465-10.59528351L496.21058654 164.63838958999997a25.04754067 25.04754067 0 0 1 11.82970048-3.0018425 24.63967324 24.63967324 0 0 1 11.65512085 3.0018425l370.30036926 199.98404502c12.00814248 6.620121 16.42129897 21.80777549 9.80117798 33.8151455a25.21748542 25.21748542 0 0 1-10.33109665 10.06536484z m-1e-8-173.05397987l-69.40003395 33.99435997-52.97410011-28.42944146 57.91794777-28.25486182-316.97015762-171.28578187L194.68995285 212.32102776l61.27512932 27.8987503-52.79952049 28.87207031-72.74949074-33.55482101C122.20464897 231.38883018 116.90546226 222.99973868999996 116.81817246 213.81576919999998c-0.26495933-9.1839695 4.76617813-17.74609566 12.80302047-22.16002465l366.59016609-199.98404502a25.27310371 25.27310371 0 0 1 11.82970048-3.17951203 24.50139999 24.50139999 0 0 1 11.65512084 3.17951203l370.30036927 199.98404502c8.03297996 4.32663918 13.06797982 12.802248 12.80302048 21.89506531 0.08651734 9.1839695-5.12151718 17.65880586-13.33293915 21.89970017z"  horiz-adv-x="1024" />

    
    <glyph glyph-name="material" unicode="&#58913;" d="M134.144 546.304l366.08-200.192c3.584-2.048 7.68-3.072 11.776-3.072 4.096 0 8.192 1.024 11.776 3.072l370.176 200.192c8.192 4.096 13.312 12.8 13.312 22.016 0 9.216-5.12 17.408-13.312 22.016L527.36 776.704c-7.168 3.584-15.36 3.584-22.528 0L134.656 590.336c-12.288-6.144-16.896-21.504-10.752-33.792 2.048-4.096 5.632-7.68 10.24-10.24z m755.2-137.728l-55.808 28.16-325.632-169.472-323.072 168.448-54.272-27.648c-12.288-6.144-16.896-20.992-10.752-33.28 2.048-4.608 5.632-8.192 10.24-10.752L496.64 163.84000000000003c3.584-2.048 7.68-3.072 11.776-3.072 4.096 0 8.192 1.024 11.776 3.072l370.176 200.192c11.776 6.656 16.384 22.016 9.728 33.792-2.56 5.12-6.144 8.192-10.752 10.752z m-381.44-311.808l-314.368 167.936-62.976-29.184c-8.192-4.096-13.312-12.288-13.824-21.504-0.512-9.216 4.608-17.92 12.8-22.016l366.592-200.192c3.584-2.048 7.68-3.072 11.776-3.072 4.096 0 8.192 1.024 11.776 3.072l370.176 200.192c8.192 4.096 13.312 12.8 12.8 22.016 0 9.216-5.12 17.408-13.312 22.016l-58.368 28.672-323.072-167.936z"  horiz-adv-x="1024" />

    
    <glyph glyph-name="close-o" unicode="&#58914;" d="M559.89599609 396.79951172L844.47265625 681.37617188a31.88583984 31.88583984 0 0 1 8.98330078 22.23105468c0 17.67304688-14.32705078 32.00009766-32.00009765 32.00009766-8.64052734 0-16.48212891-3.42509766-22.24072266-8.99033203L514.64814453 442.05 230.07148438 726.62666016a31.88583984 31.88583984 0 0 1-22.23105469 8.98330078c-17.67304688 0-32.00009766-14.32705078-32.00009766-32.00009766 0-8.64052734 3.42509766-16.48212891 8.99033203-22.24072265l284.56699219-284.56699219-284.57666016-284.57666016a31.88583984 31.88583984 0 0 1-8.98330078-22.23105469c0-17.67304688 14.32705078-32.00009766 32.00009766-32.00009765 8.64052734 0 16.48212891 3.42509766 22.24072265 8.99033203L514.64550781 351.55166016l284.57666016-284.57666016c5.7796875-5.81132813 13.78212891-9.40869141 22.62392578-9.40869141s16.84423828 3.59736328 22.62304687 9.4078125c5.79023437 5.79199219 9.37089844 13.79091797 9.37089844 22.62480469 0 8.83476562-3.58066406 16.8328125-9.36914062 22.62392578L559.89423828 396.79951172z"  horiz-adv-x="1024" />

    
    <glyph glyph-name="close" unicode="&#58915;" d="M559.89599609 396.79951172L844.47265625 681.37617188a31.88583984 31.88583984 0 0 1 8.98330078 22.23105468c0 17.67304688-14.32705078 32.00009766-32.00009765 32.00009766-8.64052734 0-16.48212891-3.42509766-22.24072266-8.99033203L514.64814453 442.05 230.07148438 726.62666016a31.88583984 31.88583984 0 0 1-22.23105469 8.98330078c-17.67304688 0-32.00009766-14.32705078-32.00009766-32.00009766 0-8.64052734 3.42509766-16.48212891 8.99033203-22.24072265l284.56699219-284.56699219-284.57666016-284.57666016a31.88583984 31.88583984 0 0 1-8.98330078-22.23105469c0-17.67304688 14.32705078-32.00009766 32.00009766-32.00009765 8.64052734 0 16.48212891 3.42509766 22.24072265 8.99033203L514.64550781 351.55166016l284.57666016-284.57666016c5.7796875-5.81132813 13.78212891-9.40869141 22.62392578-9.40869141s16.84423828 3.59736328 22.62304687 9.4078125c5.79023437 5.79199219 9.37089844 13.79091797 9.37089844 22.62480469 0 8.83476562-3.58066406 16.8328125-9.36914062 22.62392578L559.89423828 396.79951172z"  horiz-adv-x="1024" />

    
    <glyph glyph-name="add-o" unicode="&#58916;" d="M901.423 416.452H544.452V773.423c0 17.913-14.538 32.452-32.452 32.452s-32.452-14.538-32.452-32.452v-356.971H122.577c-17.913 0-32.452-14.538-32.452-32.452s14.538-32.452 32.452-32.452h356.971v-356.971c0-17.913 14.538-32.452 32.452-32.452s32.452 14.538 32.452 32.452V351.548h356.971c17.913 0 32.452 14.538 32.452 32.452s-14.538 32.452-32.452 32.452z"  horiz-adv-x="1024" />

    
    <glyph glyph-name="add" unicode="&#58917;" d="M901.423 416.452H544.452V773.423c0 17.913-14.538 32.452-32.452 32.452s-32.452-14.538-32.452-32.452v-356.971H122.577c-17.913 0-32.452-14.538-32.452-32.452s14.538-32.452 32.452-32.452h356.971v-356.971c0-17.913 14.538-32.452 32.452-32.452s32.452 14.538 32.452 32.452V351.548h356.971c17.913 0 32.452 14.538 32.452 32.452s-14.538 32.452-32.452 32.452z"  horiz-adv-x="1024" />

    
    <glyph glyph-name="manage-o" unicode="&#58918;" d="M224 472.16V664.256l192 0.096 0.096-192.096L224 472.16z m192.096 256.096H223.904A64 64 0 0 1 160 664.3199999999999v-192.192a64 64 0 0 1 63.904-63.904h192.192A64 64 0 0 1 480 472.16V664.3199999999999a64 64 0 0 1-63.904 63.904zM224 88.15999999999997V280.256l192 0.096 0.096-192.096L224 88.15999999999997z m192.096 256.096H223.904A64 64 0 0 1 160 280.32000000000005v-192.192a64 64 0 0 1 63.904-63.904h192.192A64 64 0 0 1 480 88.15999999999997V280.32000000000005a64 64 0 0 1-63.904 63.904z m287.968 88.128l-135.84 135.84 135.712 135.84L839.84 568.3199999999999 704.064 432.384z m181.024 181.024L749.184 749.312a64 64 0 0 1-90.368 0L522.912 613.44a63.456 63.456 0 0 1-18.656-45.056 63.456 63.456 0 0 1 18.656-45.312l135.904-135.936a63.904 63.904 0 0 1 90.368 0.032l135.904 135.904a63.936 63.936 0 0 1 0 90.368zM608 88.15999999999997V280.256l192 0.096 0.096-192.096L608 88.15999999999997z m192.096 256.096H607.904A64 64 0 0 1 544 280.32000000000005v-192.192a64 64 0 0 1 63.904-63.904h192.192A64 64 0 0 1 864 88.15999999999997V280.32000000000005a64 64 0 0 1-63.904 63.904z"  horiz-adv-x="1024" />

    
    <glyph glyph-name="manage" unicode="&#58919;" d="M416.096 728.2239999999999H223.904A64 64 0 0 1 160 664.3199999999999v-192.192a64 64 0 0 1 63.904-63.904h192.192A64 64 0 0 1 480 472.128V664.3199999999999a64 64 0 0 1-63.904 63.904M885.088 613.44L749.184 749.312a64 64 0 0 1-90.368 0L640 730.496 522.912 613.44a63.456 63.456 0 0 1-18.656-45.056 63.456 63.456 0 0 1 18.656-45.312l18.816-18.816L640 405.92l18.816-18.816a63.904 63.904 0 0 1 90.368 0.032l117.088 117.12 18.816 18.784a63.936 63.936 0 0 1 0 90.368M416.096 344.22400000000005H223.904A64 64 0 0 1 160 280.32000000000005v-192.192a64 64 0 0 1 63.904-63.904h192.192A64 64 0 0 1 480 88.12800000000004V280.32000000000005a64 64 0 0 1-63.904 63.904m384 0H607.904A64 64 0 0 1 544 280.32000000000005v-192.192a64 64 0 0 1 63.904-63.904h192.192A64 64 0 0 1 864 88.12800000000004V280.32000000000005a64 64 0 0 1-63.904 63.904"  horiz-adv-x="1024" />

    
    <glyph glyph-name="group-o" unicode="&#58920;" d="M864 51.23199999999997a2.464 2.464 0 0 0-1.504-0.704L288 51.903999999999996V169.91999999999996c0 5.824 6.016 14.944 12.096 17.44C301.664 188 456.992 256 576 256c118.752 0 274.336-68 276.864-69.088 5.216-2.08 11.136-11.168 11.136-17.024v-118.656zM480.48 455.2V559.9359999999999A112.064 112.064 0 0 0 592.256 672 112 112 0 0 0 704 559.9359999999999V455.2a112 112 0 0 0-111.744-112.064A112 112 0 0 0 480.48 455.2z m397.248-209.28c-4.992 2.176-92.64 40.384-191.008 61.056A176 176 0 0 1 768 455.2V559.9359999999999C768 657.024 689.152 736 592.256 736c-96.928 0-175.776-78.976-175.776-176.064V455.2c0-59.136 29.344-111.456 74.112-143.36-108.16-18.72-210.752-63.488-215.552-65.6-29.088-12-51.04-44.8-51.04-76.384v-126.4h0.544a65.536 65.536 0 0 1 64.96-56.96h572.992c28.672 0 54.304 18.752 63.808 46.72l1.696 4.96V169.91999999999996c0 31.808-22.016 64.672-50.272 76zM360.384 322.55999999999995c1.024 0 1.952-0.288 2.976-0.288a32 32 0 1 1 0 64 68.736 68.736 0 0 0-68.64 68.768v84.256c0 37.856 30.784 68.704 68.64 68.704a32 32 0 0 1 0 64 132.832 132.832 0 0 1-132.64-132.736v-84.256c0-32.736 12.352-62.368 32.064-85.536-62.72-19.296-117.536-49.696-127.584-55.456C112.352 303.20000000000005 96 277.312 96 251.55200000000002v-91.904a32 32 0 1 1 64 0v91.744a11.424 11.424 0 0 0 2.336 4.672 28.992 28.992 0 0 1 3.584 1.824c30.432 17.728 123.84 63.712 189.76 63.712 1.632 0 3.104 0.704 4.704 0.96"  horiz-adv-x="1024" />

    
    <glyph glyph-name="group" unicode="&#58921;" d="M877.728 245.88800000000003c-4.992 2.208-92.64 40.416-191.04 61.088A176 176 0 0 1 768 455.2V559.9359999999999C768 657.024 689.184 736 592.288 736a175.168 175.168 0 0 1-131.584-59.712 175.424 175.424 0 0 1-44.192-116.352V455.2c0-59.136 29.344-111.456 74.112-143.392-108.16-18.688-210.752-63.456-215.552-65.6C245.92 234.27200000000005 224 201.47199999999998 224 169.88800000000003v-126.4h0.544a65.536 65.536 0 0 1 64.96-56.96h572.992c28.672 0 54.304 18.752 63.808 46.688l1.696 4.992v131.68c0 31.808-22.016 64.672-50.272 76M322.432 318.11199999999997c34.976 10.912 51.552 17.024 51.552 17.024s22.656 9.984 16.672 29.984c-14.016 26.688-24 47.36-24 125.344V591.808s6.016 49.312 24.992 53.984c1.536 1.632 1.792 4.032 1.12 6.72a31.936 31.936 0 0 1-29.408 19.52 132.832 132.832 0 0 1-132.64-132.768v-84.256c0-32.736 12.352-62.368 32.064-85.536-62.72-19.296-117.536-49.696-127.584-55.456C112.352 303.20000000000005 96 277.312 96 251.55200000000002v-91.904a32 32 0 0 1 32-32 31.68 31.68 0 0 1 31.296 28.48c0.128 1.184 0.704 2.272 0.704 3.52v14.656c2.56 30.304 13.92 85.312 60.992 111.072 7.2 3.2 14.88 6.336 22.72 9.44a2978.88 2978.88 0 0 1 78.72 23.296"  horiz-adv-x="1024" />

    
    <glyph glyph-name="up" unicode="&#58923;" d="M928 174.2L510.8 591.5l-416-416 833.2-1.3z m0 0"  horiz-adv-x="1024" />

    
    <glyph glyph-name="up-o" unicode="&#58924;" d="M928 174.20000000000005L510.8 591.5l-416-416 833.2-1.3z m0 0"  horiz-adv-x="1024" />

    
    <glyph glyph-name="down" unicode="&#58925;" d="M130.255 574.872L512 193.128l381.745 381.745h-763.49z"  horiz-adv-x="1024" />

    
    <glyph glyph-name="down-o" unicode="&#58926;" d="M130.255 574.8720000000001L512 193.12800000000004l381.745 381.745h-763.49z"  horiz-adv-x="1024" />

    
    <glyph glyph-name="delete-o" unicode="&#58927;" d="M512 736.563c-194.765 0-352.563-157.9-352.563-352.563S317.235 31.437000000000012 512 31.437000000000012 864.563 189.235 864.563 384 706.765 736.563 512 736.563zM756.736 384c0-16.998-13.722-30.72-30.72-30.72H297.984c-16.998 0-30.72 13.722-30.72 30.72s13.722 30.72 30.72 30.72h428.032c16.998 0 30.72-13.722 30.72-30.72z"  horiz-adv-x="1024" />

    
    <glyph glyph-name="delete" unicode="&#58928;" d="M512 736.563c-194.765 0-352.563-157.9-352.563-352.563S317.235 31.437 512 31.437 864.563 189.235 864.563 384 706.765 736.563 512 736.563zM756.736 384c0-16.998-13.722-30.72-30.72-30.72H297.984c-16.998 0-30.72 13.722-30.72 30.72s13.722 30.72 30.72 30.72h428.032c16.998 0 30.72-13.722 30.72-30.72z"  horiz-adv-x="1024" />

    
    <glyph glyph-name="pie" unicode="&#58929;" d="M512 834v-450h450A450 450 0 0 1 512 834z m90-101.25a360 360 0 0 0 258.75-258.75H602zM467 744a405 405 0 1 1 405-405H467z"  horiz-adv-x="1024" />

    
    <glyph glyph-name="pie-o" unicode="&#58930;" d="M512 834v-450h450A450 450 0 0 1 512 834z m90-101.25a360 360 0 0 0 258.75-258.75H602zM467 744a405 405 0 1 1 405-405H467z"  horiz-adv-x="1024" />

    


  </font>
</defs>
</svg>
